<svg xmlns="http://www.w3.org/2000/svg" width="250" height="125" viewBox="0 0 250 125"><path fill="#3c3c3c" d="M0 0h250v125H0z"/><text style="line-height:104.99999523%" x="131.557" y="79" font-weight="400" font-size="173.372" font-family="sans-serif" letter-spacing="0" word-spacing="0"><tspan x="131.557" y="79" style="line-height:104.99999523%;-inkscape-font-specification:Molot" font-size="47.143" font-family="Molot" fill="#fff">SCL</tspan></text><g><g fill-rule="evenodd"><path d="M106.97 35.734l-9.263 1.962-8.827 2.725-3.706 3.38-5.776 5.775-2.288 6.103-2.07 5.776-1.09 11.443.217 11.116 1.308 11.88 6.648.87 13.296-.87 5.666-2.508 7.955-5.122 5.886-6.975 3.378-8.064 2.398-10.462-2.615-10.9-3.597-9.044z" fill="#f4923b"/><path d="M100.432 31.375l-9.373 7.193-8.065 5.885-6.32 6.757-2.18 4.795-1.526 10.026-.437 10.027-.654 19.18-7.63-5.012-11.552-12.642-2.18-16.347 3.706-16.347 9.59-10.9 13.078-5.448 14.385.218z" fill="#fff"/></g><g fill="none" stroke="#3c3c3c"><circle r="402.175" cy="498.571" cx="501.429" stroke-width="66.429" stroke-linejoin="round" transform="matrix(.08613 0 0 .08613 41.812 19.558)" fill-opacity="0"/><path d="M72.097 94.257l.218-26.264c-.203-16.076 13.768-31.75 32.258-33.893" stroke-width="7.629"/></g><circle r="413.249" cy="487.143" cx="515.714" transform="matrix(.0763 0 0 .0763 45.94 25.272)" fill="none" stroke="#fff" stroke-width="25"/></g></svg>